<?xml version="1.0" encoding="UTF-8"?>
<svg width="32px" height="28px" viewBox="0 0 32 28" version="1.1" xmlns="http://www.w3.org/2000/svg" xmlns:xlink="http://www.w3.org/1999/xlink">
    <!-- Generator: Sketch 40.1 (33804) - http://www.bohemiancoding.com/sketch -->
    <title>chat</title>
    <desc>Created with Sketch.</desc>
    <defs></defs>
    <g id="Page-1" stroke="none" stroke-width="1" fill="none" fill-rule="evenodd">
        <g id="chat" fill="#49EB77">
            <g id="bubble">
                <path d="M16,5 C10.037,5 5,8.206 5,12 C5,12.276 5.224,12.5 5.5,12.5 C5.776,12.5 6,12.276 6,12 C6,8.804 10.673,6 16,6 C16.275,6 16.5,5.776 16.5,5.5 C16.5,5.224 16.276,5 16,5 L16,5 Z" id="Shape"></path>
                <path d="M16,0 C7.163,0 0,5.373 0,12 C0,16.127 2.779,19.766 7.008,21.926 C7.008,21.953 7,21.971 7,22 C7,23.793 5.661,25.723 5.072,26.736 L5.074,26.736 C5.027,26.846 5,26.967 5,27.094 C5,27.594 5.405,28 5.906,28 C6,28 6.165,27.975 6.161,27.986 C9.286,27.474 12.23,24.603 12.914,23.771 C13.913,23.918 14.943,24 16,24 C24.835,24 32,18.627 32,12 C32,5.373 24.836,0 16,0 L16,0 Z M16,22 C15.083,22 14.142,21.93 13.204,21.793 C13.107,21.777 13.01,21.772 12.914,21.772 C12.32,21.772 11.751,22.036 11.368,22.502 C10.94,23.023 9.722,24.186 8.283,25.041 C8.673,24.146 8.978,23.143 8.999,22.109 C9.005,22.045 9.008,21.98 9.008,21.925 C9.008,21.173 8.587,20.486 7.918,20.144 C4.212,18.252 2,15.207 2,12 C2,6.486 8.28,2 16,2 C23.718,2 30,6.486 30,12 C30,17.514 23.719,22 16,22 L16,22 Z" id="Shape"></path>
            </g>
        </g>
    </g>
</svg>